<svg width="653" height="516" viewBox="0 0 653 516" fill="none" xmlns="http://www.w3.org/2000/svg">
<path d="M284.293 29.8863H136.804V167.548H284.293V29.8863Z" fill="#112B46"/>
<path d="M284.293 29.8863H136.804V44.4456H284.293V29.8863Z" fill="#1D262D"/>
<path d="M252.412 37.3307C252.412 38.8048 251.218 39.9992 249.744 39.9992C248.27 39.9992 247.075 38.8048 247.075 37.3307C247.075 35.8567 248.27 34.6623 249.744 34.6623C251.218 34.6623 252.412 35.8567 252.412 37.3307Z" fill="#606BF1"/>
<path d="M263.555 37.3307C263.555 38.8048 262.361 39.9992 260.886 39.9992C259.412 39.9992 258.218 38.8048 258.218 37.3307C258.218 35.8567 259.412 34.6623 260.886 34.6623C262.361 34.6623 263.555 35.8567 263.555 37.3307Z" fill="#FBD15B"/>
<path d="M273.902 37.612C273.902 39.086 272.708 40.2804 271.234 40.2804C269.76 40.2804 268.565 39.086 268.565 37.612C268.565 36.1379 269.76 34.9435 271.234 34.9435C272.708 34.9435 273.902 36.1379 273.902 37.612Z" fill="#FF8578"/>
<path d="M183.919 57.9798H163.029V59.7351H183.919V57.9798Z" fill="#FF8578"/>
<path d="M208.437 57.9798H187.547V59.7351H208.437V57.9798Z" fill="#FBD15B"/>
<path d="M201.884 67.4366H169.491V69.1919H201.884V67.4366Z" fill="#606BF1"/>
<path d="M223.705 67.4366H207.239V69.1919H223.705V67.4366Z" fill="#FF8578"/>
<path d="M194.954 76.8948H180.727V78.6501H194.954V76.8948Z" fill="#FBD15B"/>
<path d="M250.373 76.8948H203.177V78.6501H250.373V76.8948Z" fill="#FBD15B"/>
<path d="M245.716 86.3531H191.777V88.1084H245.716V86.3531Z" fill="#606BF1"/>
<path d="M194.892 95.8113H178.292V97.5666H194.892V95.8113Z" fill="#FF8578"/>
<path d="M218.595 95.8113H201.995V97.5666H218.595V95.8113Z" fill="#606BF1"/>
<path d="M187.178 144.879H163.029V146.634H187.178V144.879Z" fill="#FF8578"/>
<path d="M219.788 144.879H195.637V146.634H219.788V144.879Z" fill="#FBD15B"/>
<path d="M251.516 144.879H227.367V146.634H251.516V144.879Z" fill="#FF8578"/>
<path d="M216.687 135.422H169.491V137.178H216.687V135.422Z" fill="#606BF1"/>
<path d="M271.241 135.422H224.045V137.178H271.241V135.422Z" fill="#FF8578"/>
<path d="M227.562 125.964H180.727V127.719H227.562V125.964Z" fill="#FF8578"/>
<path d="M244.681 125.964H231.646V127.719H244.681V125.964Z" fill="#FBD15B"/>
<path d="M195.3 116.506H177.669V118.261H195.3V116.506Z" fill="#FBD15B"/>
<path d="M222.294 116.506H204.663V118.261H222.294V116.506Z" fill="#606BF1"/>
<path d="M251.265 116.506H233.634V118.261H251.265V116.506Z" fill="#FF8578"/>
<path d="M222.828 107.048H198.106V108.803H222.828V107.048Z" fill="#FBD15B"/>
<path d="M188.779 107.048H164.057V108.803H188.779V107.048Z" fill="#606BF1"/>
<path d="M151.604 56.2941H149.357V58.5423H151.604V56.2941Z" fill="#F9FBFC"/>
<path d="M151.606 138.753H149.359V134.17H151.606V138.753ZM151.606 127.294H149.359V122.712H151.606V127.294ZM151.606 115.835H149.359V111.251H151.606V115.835ZM151.606 104.376H149.359V99.7921H151.606V104.376ZM151.606 92.9176H149.359V88.3336H151.606V92.9176ZM151.606 81.4592H149.359V76.8752H151.606V81.4592ZM151.606 69.9992H149.359V65.4152H151.606V69.9992Z" fill="#F9FBFC"/>
<path d="M151.604 145.629H149.357V147.877H151.604V145.629Z" fill="#F9FBFC"/>
<path d="M437.475 0.642273H316.027V75.5024H437.475V0.642273Z" fill="#5F4BB6"/>
<path d="M363.196 30.7511L348.747 36.918L363.196 42.9942L361.305 47.3605L343.976 39.6182V34.2617L361.305 26.4741L363.196 30.7511Z" fill="#F9FBFC"/>
<path d="M384.489 16.4836L374.001 56.7689L369.005 55.5987L379.538 15.3588L384.489 16.4836Z" fill="#F9FBFC"/>
<path d="M409.567 34.2632V39.6198L392.236 47.3621L390.346 42.9958L404.75 36.9196L390.346 30.7527L392.236 26.4771L409.567 34.2632Z" fill="#F9FBFC"/>
<path d="M502.478 145.668H433.304V194.949H502.478V145.668Z" fill="#606BF1"/>
<path d="M462.24 156.307C460.015 156.307 459.274 156.907 459.274 158.567V165.985C459.274 168.881 458.074 169.764 456.06 170.33C458.074 170.859 459.274 171.742 459.274 174.602V182.02C459.274 183.68 460.051 184.28 462.24 184.28V187.529C456.625 187.529 455.035 185.728 455.035 181.983V174.955C455.035 172.941 454.506 172.165 452.669 172.165V168.457C454.506 168.457 455.035 167.645 455.035 165.631V158.602C455.035 154.823 456.625 153.057 462.24 153.057V156.307Z" fill="#F1F2F2"/>
<path d="M480.749 158.604V165.632C480.749 167.646 481.278 168.458 483.151 168.458V172.167C481.279 172.167 480.749 172.944 480.749 174.956V181.985C480.749 185.728 479.16 187.53 473.543 187.53V184.281C475.732 184.281 476.51 183.681 476.51 182.021V174.604C476.51 171.743 477.71 170.86 479.724 170.331C477.71 169.766 476.51 168.883 476.51 165.986V158.569C476.51 156.909 475.769 156.309 473.543 156.309V153.06C479.16 153.058 480.749 154.824 480.749 158.604Z" fill="#F1F2F2"/>
<path d="M167.465 11.3781H89.8623V63.2835H167.465V11.3781Z" fill="#FCA311"/>
<path d="M115.546 26.2775C111.841 30.9144 111.898 37.6906 115.673 42.2716C119.962 47.4769 127.31 48.3145 132.589 44.7934L140.734 52.9378C141.077 53.281 141.635 53.281 141.978 52.9378L144.267 50.6504C144.61 50.3072 144.61 49.7493 144.267 49.4061L136.123 41.2617C139.422 36.3148 138.894 29.5522 134.532 25.1905C129.226 19.8838 120.366 20.2467 115.546 26.2775ZM131.894 40.5662C128.382 44.0783 122.669 44.0768 119.156 40.5662C115.644 37.0541 115.644 31.3408 119.156 27.8287C122.669 24.3166 128.382 24.3166 131.894 27.8287C135.405 31.3393 135.406 37.0541 131.894 40.5662Z" fill="#F9FBFC"/>
<path d="M393.208 171.706C393.039 173.42 390.695 191.319 372.29 191.319C352.965 191.319 356.202 172.188 356.202 172.188L356.178 172.067C358.061 171.68 360.09 171.535 362.24 171.777V162.718L384.173 150.447H384.97V171.583C384.97 171.583 388.448 171.173 393.208 171.706Z" fill="url(#paint0_radial_170_10)"/>
<path d="M382.555 110.014C385.665 113.168 388.016 117.25 389.147 122.237C391.255 131.529 389.271 141.361 386.575 150.316C386.114 151.847 385.591 153.392 384.645 154.682C383.969 155.601 383.101 156.36 382.239 157.109C378.337 160.506 374.438 163.904 370.545 167.312C367.907 169.622 351.663 171.547 348.562 169.33C336.616 160.788 334.318 136.042 336.709 123.391C340.676 102.402 367.653 94.8967 382.555 110.014Z" fill="url(#paint1_radial_170_10)"/>
<path d="M375.846 136.874C376.004 134.854 378.082 132.64 380.167 133.951C382.325 135.309 381.817 138.897 380.922 140.871C380.221 142.419 377.875 144.114 376.286 142.675C374.954 141.468 377.023 140.044 377.091 138.943C377.152 137.952 375.168 137.241 375.98 136.18" fill="#F7B094"/>
<path d="M376.228 146.214C378.405 146.867 382.093 145.207 383.027 142.174C383.96 139.142 383.86 135.679 383.86 135.679C383.86 135.679 384.956 138.425 384.392 142.841C383.828 147.259 382.28 151.466 378.814 151.521C375.347 151.577 376.228 146.214 376.228 146.214Z" fill="#F7B094"/>
<path d="M373.557 143.071C373.486 143.106 373.406 143.131 373.313 143.145C371.965 143.334 371.428 141.703 371.227 140.681C370.76 138.296 370.834 135.883 370.749 133.472C370.73 132.867 370.778 132.114 370.53 131.546C369.772 129.812 367.754 128.684 367.139 126.894C366.422 124.81 368.445 122.732 367.642 120.45C366.413 116.956 361.927 116.154 358.683 116.191C353.813 116.249 349.067 117.151 344.263 117.897C339.19 118.684 332.708 119.431 328.238 116.223C322.852 112.357 320.602 102.281 324.622 96.7638C326.813 93.7567 330.969 92.1557 334.609 92.0725C338.469 91.9848 341.73 94.2844 345.27 95.4425C348.089 96.3647 350.817 93.6675 353.452 93.1399C356.764 92.4777 358.172 96.0941 361.102 96.1939C363.949 96.2906 366.743 94.0667 369.511 93.5602C375.029 92.5533 374.704 98.0958 378.408 99.9886C380.709 101.165 383.683 100.453 386.011 101.649C387.78 102.557 388.028 104.154 388.414 105.962C388.746 107.525 388.766 109.33 389.28 110.817C389.743 112.153 390.866 112.997 391.741 114.043C392.697 115.183 393.306 116.515 393.792 117.945C394.865 121.115 395.104 124.537 394.811 127.857C394.318 133.431 392.525 138.916 390.664 144.165C389.456 147.572 389.006 151.119 387.148 154.342C386.649 155.208 384.433 157.737 383.609 155.854C383.432 155.45 383.459 154.99 383.491 154.55C383.736 151.04 387.005 128.415 378.436 131.133C376.636 131.703 375.43 133.2 374.759 134.908C373.957 136.951 373.9 139.008 374.003 141.167C374.018 141.476 374.025 141.786 374.013 142.094C373.998 142.495 373.898 142.9 373.557 143.071Z" fill="#3D3D7A"/>
<path d="M362.241 169.705C371.986 168.139 378.416 160.441 378.416 160.441C378.416 160.441 375.787 173.416 361.656 174.102L362.241 169.705Z" fill="#F7B094"/>
<path d="M378.238 346.55H392.188V480.388C392.188 481.746 391.087 482.847 389.729 482.847H380.696C379.338 482.847 378.238 481.746 378.238 480.388V346.55Z" fill="#0A2033"/>
<path d="M346.854 348.464H423.569V350.558C423.569 355.83 419.295 360.104 414.024 360.104H356.4C351.128 360.104 346.854 355.83 346.854 350.558V348.464Z" fill="#30475E"/>
<path d="M378.238 466.978H392.188V497.992C392.188 499.35 391.087 500.451 389.729 500.451H380.696C379.338 500.451 378.238 499.35 378.238 497.992V466.978Z" fill="#0A2033"/>
<path d="M312.823 492.287C312.823 496.795 316.479 500.451 320.987 500.451C325.496 500.451 329.151 496.795 329.151 492.287C329.151 487.778 325.496 484.123 320.987 484.123C316.479 484.123 312.823 487.778 312.823 492.287Z" fill="#0A2033"/>
<path d="M441.272 492.287C441.272 496.795 444.927 500.451 449.436 500.451C453.944 500.451 457.6 496.795 457.6 492.287C457.6 487.778 453.944 484.123 449.436 484.123C444.926 484.123 441.272 487.778 441.272 492.287Z" fill="#0A2033"/>
<path d="M371.18 481.106H399.243V456.584H371.18V481.106Z" fill="#30475E"/>
<path d="M312.823 486.877H457.6V484.032C457.6 479.23 453.707 475.337 448.905 475.337H321.52C316.718 475.337 312.825 479.23 312.825 484.032V486.877H312.823Z" fill="#FCA311"/>
<path d="M385.212 362.854H380.372V454.395H385.212V362.854Z" fill="#30475E"/>
<path d="M440.015 249.538C436.668 249.434 433.946 252.204 434.14 255.546C435.099 272.162 431.576 312.695 416.1 326.525C397.178 343.434 343.547 341.132 343.547 341.132C343.547 341.132 334.691 352.002 352.404 354.416C370.118 356.832 420.039 355.222 432.117 343.95C443.808 333.039 450.748 304.451 445.518 254.692C445.217 251.838 442.883 249.627 440.015 249.538Z" fill="#FCA311"/>
<path d="M339.534 454.396L345.911 468.937L326.37 477.513L319.969 462.923L339.534 454.396Z" fill="url(#paint2_radial_170_10)"/>
<path d="M431.686 292.771C430.478 295.187 343.652 292.82 335.452 293.568C335.452 293.568 282.309 318.931 274.676 342.677C273.903 345.069 273.686 348.233 273.928 352C276.053 385.431 314.122 465.483 314.122 465.483L319.967 462.922L339.534 454.395L342.311 453.187C342.311 453.187 312.117 363.208 318.156 358.378C324.194 353.547 392.627 341.469 416.371 335.043C440.141 328.595 431.686 292.771 431.686 292.771Z" fill="#5F4BB6"/>
<path d="M265.035 458.137L266.56 479.983H245.231L243.705 458.088L265.035 458.137Z" fill="url(#paint3_radial_170_10)"/>
<path d="M335.018 292.82L334.245 293.159C334.245 293.159 245.281 305.647 230.788 330.6C221.368 346.833 239.602 465.442 239.602 465.442L271.076 465.514C271.076 465.514 266.368 366.712 267.939 361.205C269.702 354.924 272.721 352.654 273.929 352.002C273.687 348.234 273.905 345.069 274.678 342.678C282.311 318.933 335.453 293.57 335.453 293.57C335.282 293.449 335.137 293.183 335.018 292.82Z" fill="#504096"/>
<path d="M420.946 210.62L414.98 211.441C414.98 211.441 413.53 227.528 409.981 243.616L335.654 271.829L334.64 277.216C334.325 277.192 334.012 277.167 333.722 277.143C333.746 278.255 333.746 279.342 333.794 280.356C333.964 286.564 334.374 291.033 335.027 292.82C335.148 293.183 335.293 293.447 335.462 293.568C337.482 295.215 363.769 292.025 392.189 302.46C416.837 311.51 430.651 321.396 431.29 320.067C439.033 303.964 424.931 240.766 420.946 210.62Z" fill="#FF8578"/>
<path d="M413.192 247.48C411.211 256.998 406.091 275.935 396.041 278.472C382.924 281.806 357.561 281.637 333.793 280.356C333.745 279.342 333.745 278.255 333.72 277.143C334.011 277.167 334.324 277.192 334.638 277.216L335.653 271.829L409.979 243.616C413.53 227.528 414.979 211.441 414.979 211.441C414.979 211.441 414.979 211.537 415.003 211.707C415.148 214.195 416.163 233.422 413.192 247.48Z" fill="#F4675D"/>
<path d="M338.689 186.876C337.36 189.292 335.452 215.137 334.413 240.79L319.219 226.611C325.668 214.123 338.689 186.876 338.689 186.876Z" fill="#F4675D"/>
<path d="M329.583 259.535C316.756 261.757 304.968 263.665 304.968 263.665L304.944 264.292C290.667 252.891 268.952 220.595 268.952 220.595C268.952 220.595 275.45 212.792 277.068 210.739C277.31 210.425 312.721 234.797 314.534 234.58C314.993 234.531 316.805 231.343 319.22 226.609L334.415 240.789C334.173 246.9 333.979 252.987 333.858 258.761C332.433 259.027 331.007 259.268 329.583 259.535Z" fill="#F7B094"/>
<path d="M304.968 263.665L304.653 274.245H266.005C266.005 274.245 269.846 259.148 280.306 259.148C290.765 259.148 294.799 264.679 294.799 264.679L304.968 263.665Z" fill="url(#paint4_radial_170_10)"/>
<path d="M276.779 210.499L277.069 210.741C275.45 212.794 268.954 220.596 268.954 220.596L264.92 217.747C264.92 217.747 260.475 220.453 255.306 217.626C249.919 214.703 253.253 207.724 253.53 206.897C252.485 207.192 246.031 212.408 245.016 211.853C244.002 211.297 243.253 209.462 250.476 202.336C257.674 195.211 267.481 204.365 267.771 204.365L276.779 210.499Z" fill="#F7B094"/>
<path d="M256.145 216.413C256.145 216.413 254.588 219.329 257.356 220.596C260.124 221.863 265.511 222.778 267.824 222.556C270.138 222.334 271.978 219.095 271.978 219.095L264.97 212.52H259.369L256.145 216.413Z" fill="#F7B094"/>
<path d="M255.729 217.845C256.145 216.413 260.123 217.177 262.59 217.236C264.407 217.279 265.402 216.803 265.964 215.418C266.527 214.035 263.889 211.828 263.369 212.52C262.85 213.212 264.321 214.186 264.363 215.105C264.407 216.025 261.768 216.327 259.736 216.327C257.702 216.327 254.195 216.856 254.195 216.856L255.729 217.845Z" fill="#E8987C"/>
<path d="M406.203 257.336L368.351 243.931C365.598 249.075 362.65 252.941 359.728 253.714C355.307 254.873 344.63 256.878 333.857 258.762C332.431 259.028 331.007 259.268 329.581 259.535C316.754 261.757 304.966 263.665 304.966 263.665L304.942 264.292V264.704L304.652 274.245V276.666C304.652 276.666 317.503 276.008 333.711 277.143C356.394 278.761 385.646 279.729 395.332 275.163C399.874 273.013 403.496 265.96 406.348 257.264C406.299 257.288 406.251 257.312 406.203 257.336Z" fill="url(#paint5_radial_170_10)"/>
<path d="M368.351 243.931L406.202 257.336L404.489 262.394L367.025 246.324L368.351 243.931Z" fill="#F7B094"/>
<path d="M368.351 243.931C365.598 249.075 362.65 252.941 359.728 253.714C355.307 254.873 344.63 256.878 333.857 258.762C333.978 252.988 334.171 246.901 334.413 240.79C335.452 215.137 337.36 189.292 338.689 186.876C340.863 182.842 346.804 174.073 356.176 172.068L356.201 172.189C356.201 172.189 352.964 191.321 372.288 191.321C390.695 191.321 393.037 173.422 393.207 171.707C402.675 172.77 417.192 177.505 419.197 196.54C419.608 200.307 420.187 205.139 420.936 210.623L414.97 211.444C414.97 211.444 412.554 238.257 406.346 257.267C406.298 257.291 406.249 257.315 406.201 257.339L368.351 243.931Z" fill="#FF8578"/>
<path d="M367.96 240.441L383.074 203.854L371.939 241.92L367.96 240.441Z" fill="#6D4B35"/>
<path d="M393.208 171.706H384.971C384.971 171.706 373.25 184.576 365.714 184.576C358.179 184.576 362.242 171.778 362.242 171.778H358.566C348.006 171.778 339.119 179.708 337.925 190.202C337.787 191.404 337.663 192.544 337.556 193.575C336.75 201.361 368.292 207.027 368.292 207.027L384.533 206.119L394.395 186.876L396.36 178.996L393.208 171.706Z" fill="#FF8578"/>
<path d="M293.813 494.249C294.546 498.184 297.274 500.983 301.211 500.248L353.674 490.463C355.001 490.215 355.877 488.939 355.629 487.612L354.761 482.957C354.761 482.957 299.585 492.612 293.787 494.22L293.813 494.249Z" fill="#F1F2F2"/>
<path d="M309.422 481.04C309.969 480.565 310.495 480.093 311.042 479.619C312.095 478.677 313.13 477.761 314.127 476.872C314.653 476.402 315.179 475.93 315.667 475.488C316.626 474.63 317.528 473.825 318.337 473.104C318.919 472.58 319.462 472.082 319.95 471.641C320.847 470.836 321.58 470.18 322.093 469.721C322.537 469.323 323.196 469.303 323.654 469.687C325.812 471.5 332.782 475.647 345.407 467.834C346.006 467.463 346.8 467.657 347.125 468.281L354.76 482.954C354.76 482.954 299.584 492.609 293.786 494.217C295.692 493.032 302.736 486.938 309.422 481.04Z" fill="#3D3D7A"/>
<path d="M211.188 493.735C211.286 497.737 213.533 500.933 217.535 500.836L270.887 499.535C272.237 499.501 273.305 498.381 273.272 497.031L273.157 492.297C273.157 492.297 217.146 493.04 211.167 493.702L211.188 493.735Z" fill="#F1F2F2"/>
<path d="M228.702 483.181C229.319 482.798 229.913 482.419 230.528 482.036C231.716 481.274 232.885 480.533 234.01 479.817C234.604 479.436 235.198 479.055 235.752 478.697C236.834 478.001 237.853 477.351 238.766 476.769C239.424 476.342 240.039 475.94 240.593 475.582C241.605 474.932 242.434 474.4 243.013 474.028C243.515 473.706 244.17 473.792 244.56 474.244C246.4 476.377 252.621 481.581 266.331 475.88C266.981 475.609 267.734 475.927 267.956 476.597L273.155 492.299C273.155 492.299 217.145 493.041 211.166 493.703C213.237 492.832 221.162 487.937 228.702 483.181Z" fill="#3D3D7A"/>
<path d="M173.236 276.666L144.743 200.675H225.859L254.353 276.666H173.236Z" fill="#ABB5BA"/>
<path d="M259.367 276.666H254.353L225.859 200.675L230.414 200.877L256.768 269.661L259.367 276.666Z" fill="#8495A0"/>
<path d="M257.794 276.666H311.395L311.249 271.874C311.249 271.874 257.593 271.874 256.698 271.874" fill="#8495A0"/>
<path d="M486.151 291.158H473.246V503.174H486.151V291.158Z" fill="#8495A0"/>
<path d="M416.1 291.158H403.195V503.174H416.1V291.158Z" fill="#ABB5BA"/>
<path d="M191.68 291.158H178.775V503.174H191.68V291.158Z" fill="#8495A0"/>
<path d="M121.631 291.158H108.726V503.174H121.631V291.158Z" fill="#ABB5BA"/>
<path d="M499.066 291.964H96.3633C92.8996 291.964 90.0906 289.155 90.0906 285.691V282.938C90.0906 279.473 92.8996 276.666 96.3633 276.666H499.064C502.53 276.666 505.337 279.475 505.337 282.938V285.691C505.339 289.157 502.53 291.964 499.066 291.964Z" fill="#141B56"/>
<path d="M158.286 208.662L159.674 212.361H175.833L174.445 208.662H158.286Z" fill="#8495A0"/>
<path d="M319.22 226.611L318.061 228.851L334.413 245.752V240.79L319.22 226.611Z" fill="#E8987C"/>
<path d="M653 500.448H0V515.358H653V500.448Z" fill="#A5B7C6"/>
<path d="M549.47 389.858C546.876 402.444 547.657 423.884 531.006 427.279C526.522 428.194 522.19 425.086 519.584 421.524C516.173 416.863 515.356 406.996 515.417 401.354C515.464 396.882 516.989 391.894 517.481 387.383C518.011 382.51 518.442 377.627 519.011 372.757C521.059 355.207 530.227 340.498 545.734 331.737C546.935 337.497 549.671 342.373 552.083 347.905C553.182 350.427 554.175 353.086 554.89 355.729C556.159 360.408 554.624 365.139 553.486 369.62C551.805 376.248 550.852 383.154 549.47 389.858Z" fill="url(#paint6_linear_170_10)"/>
<path d="M528.189 427.703C528.307 426.647 528.437 425.591 528.576 424.535C530.566 424.531 532.637 423.4 534.308 422.534C537.204 421.032 539.552 418.879 541.829 416.578C541.95 416.456 541.746 416.258 541.616 416.367C539.347 418.273 536.994 420.119 534.293 421.379C532.787 422.08 530.586 423.228 528.729 423.45C528.904 422.19 529.098 420.933 529.306 419.678C531.378 419.424 533.275 418.063 535.03 417.023C538.012 415.254 540.576 412.965 543.234 410.761C543.264 410.735 543.228 410.69 543.196 410.712C539.129 413.665 534.6 417.868 529.458 418.789C529.73 417.216 530.019 415.649 530.348 414.09C530.365 414.008 530.383 413.928 530.401 413.846C536.353 412.341 540.381 407.672 544.938 403.898C545.012 403.838 544.933 403.711 544.855 403.771C540.366 407.256 536.149 411.235 530.601 412.926C531.081 410.697 531.582 408.475 532.085 406.255C537.472 404.269 541.773 401.113 545.536 396.718C545.6 396.644 545.496 396.542 545.428 396.613C541.531 400.667 537.241 402.997 532.3 405.304C532.797 403.108 533.292 400.909 533.759 398.707C536.089 397.561 538.539 396.864 540.692 395.356C542.815 393.87 544.72 392.098 546.087 389.886C546.159 389.77 545.985 389.66 545.908 389.771C542.895 394.103 538.352 395.452 533.962 397.73C534.389 395.677 534.789 393.616 535.145 391.545C540.038 388.851 545.355 386.353 548.128 381.19C548.155 381.139 548.084 381.089 548.052 381.139C545.115 385.883 539.98 387.925 535.319 390.508C535.38 390.139 535.448 389.771 535.505 389.401C535.805 387.479 536.086 385.556 536.361 383.633C539.173 382.507 541.852 380.918 544.383 379.27C546.179 378.101 548.097 376.942 549.272 375.105C549.346 374.99 549.177 374.87 549.098 374.982C546.474 378.742 540.727 380.915 536.482 382.797C536.758 380.854 537.031 378.91 537.307 376.967C542.018 374.118 547.559 372.541 550.458 367.403C550.544 367.251 550.32 367.11 550.225 367.26C547.222 371.951 541.938 373.398 537.436 376.06C537.61 374.857 537.785 373.653 537.966 372.451C543.052 370.581 548.967 366.324 551.649 361.725C551.797 361.472 551.43 361.236 551.265 361.48C548.528 365.515 543.033 369.899 538.115 371.496C538.415 369.547 538.73 367.601 539.076 365.659C539.111 365.606 539.137 365.548 539.152 365.486C541.435 364.814 543.693 363.203 545.663 361.988C548.04 360.521 550.309 358.817 551.788 356.408C551.951 356.141 551.519 355.895 551.365 356.169C549.104 360.201 543.743 362.904 539.304 364.443C539.436 363.736 539.563 363.026 539.704 362.319C539.914 361.261 540.128 360.204 540.345 359.147C542.162 357.892 544.469 357.29 546.294 355.966C547.88 354.814 549.265 353.426 550.624 352.02C550.76 351.881 550.559 351.665 550.415 351.799C548.574 353.53 546.679 355.19 544.439 356.391C543.185 357.062 541.757 357.445 540.543 358.179C540.898 356.451 541.252 354.723 541.589 352.994C541.61 352.989 541.631 352.983 541.654 352.98C541.675 352.985 541.698 352.989 541.719 352.994C541.844 353.018 541.944 352.974 542.018 352.902C544.489 352.279 546.38 350.15 548.04 348.337C548.079 348.293 548.019 348.231 547.977 348.272C546.233 349.884 544.254 351.666 541.92 352.359C541.911 352.357 541.905 352.351 541.896 352.35C541.835 352.341 541.778 352.332 541.719 352.321C541.99 350.913 542.247 349.501 542.482 348.088C542.661 348.056 542.817 347.903 542.774 347.725C544.083 346.845 545.275 345.725 546.392 344.627C546.475 344.545 546.357 344.415 546.268 344.493C545.107 345.493 543.961 346.319 542.653 347.043C543.114 344.122 543.473 341.186 543.636 338.22C543.651 337.945 543.235 337.942 543.211 338.212C542.953 341.067 542.538 343.894 542.047 346.707C540.683 344.919 539.167 343.077 538.334 341.03C538.29 340.925 538.122 340.967 538.158 341.082C538.567 342.353 539.268 343.464 539.965 344.595C540.588 345.607 541.085 346.784 541.879 347.683C541.606 349.193 541.308 350.7 540.998 352.205C539.341 351.938 537.82 351.624 536.452 350.425C534.776 348.957 533.824 346.958 533.658 344.745C533.638 344.473 533.207 344.474 533.233 344.747C533.422 346.807 534.241 348.744 535.65 350.28C537.132 351.896 538.872 352.41 540.868 352.824C540.505 354.562 540.13 356.297 539.747 358.031C538.242 357.129 536.843 355.948 535.487 354.867C533.298 353.122 532.005 351.022 530.105 349.057C529.914 348.86 529.604 349.145 529.792 349.344C531.573 351.238 532.778 353.289 534.804 354.989C536.263 356.214 537.871 357.749 539.611 358.654C539.592 358.746 539.571 358.837 539.551 358.929C539.533 358.947 539.512 358.961 539.493 358.979C539.36 359.109 539.376 359.259 539.456 359.368C539.09 361.029 538.725 362.691 538.375 364.355C538.353 364.46 538.334 364.564 538.313 364.668C534.439 362.895 528.652 359.815 528.139 355.322C528.091 354.894 527.453 355.014 527.551 355.451C528.697 360.535 534.285 362.789 538.136 365.562C537.756 367.444 537.409 369.333 537.088 371.224C534.587 370.364 532.208 369.299 530.108 367.629C528.197 366.109 525.495 364.277 524.635 361.924C524.608 361.85 524.499 361.899 524.523 361.971C525.32 364.31 527.743 365.919 529.508 367.514C531.747 369.54 534.037 371.259 536.914 372.069C536.893 372.152 536.887 372.238 536.907 372.321C536.71 373.522 536.52 374.722 536.335 375.924C531.632 375.563 525.051 371.99 522.647 368.433C522.636 368.416 522.613 368.434 522.622 368.451C524.261 371.165 526.741 372.752 529.535 374.13C531.623 375.158 533.877 376.375 536.238 376.55C535.901 378.776 535.575 381.004 535.242 383.231C533.201 382.471 531.039 382.106 529.021 381.297C526.018 380.095 523.726 377.938 521.959 375.285C521.853 375.124 521.585 375.259 521.69 375.427C524.946 380.603 529.63 382.123 535.118 384.061C534.844 385.887 534.559 387.714 534.256 389.536C529.765 388.675 523.956 385.934 521.684 382.032C521.517 381.745 521.061 381.984 521.227 382.273C522.663 384.772 525.137 386.353 527.659 387.628C529.476 388.545 531.978 390.066 534.143 390.23C534.132 390.29 534.123 390.349 534.114 390.409C533.67 393.033 533.151 395.642 532.592 398.244C527.574 396.983 524.331 393.265 520.684 389.788C520.43 389.546 520.034 389.915 520.287 390.163C524.001 393.819 527.265 397.656 532.427 399.007C531.964 401.124 531.471 403.235 530.96 405.341C526.688 404.145 522.458 401.113 519.694 397.63C519.497 397.384 519.154 397.718 519.34 397.963C522.213 401.742 526.354 404.594 530.764 406.157C530.209 408.417 529.636 410.671 529.056 412.924C524.665 412.256 521.283 409.507 518.58 406.035C518.516 405.954 518.376 406.06 518.436 406.143C520.839 409.486 524.472 413.344 528.844 413.75C528.658 414.469 528.472 415.187 528.287 415.907C528.176 416.341 528.058 416.781 527.938 417.224C524.627 416.249 521.555 415.06 518.823 412.83C518.746 412.768 518.66 412.886 518.731 412.951C521.327 415.289 524.435 416.864 527.757 417.886C527.388 419.239 526.999 420.63 526.615 422.048C525.794 421.666 524.999 421.247 524.101 420.978C522.455 420.484 521.389 419.44 519.956 418.579C519.824 418.5 519.676 418.686 519.807 418.772C521.065 419.593 521.95 420.65 523.386 421.191C524.449 421.592 525.451 422.103 526.478 422.558C524.969 428.182 523.634 434.16 524.358 439.559C524.518 440.756 526.528 441.074 526.838 439.799C527.792 435.883 527.742 431.703 528.189 427.703Z" fill="#747DED"/>
<path d="M496.774 386.253C499.734 398.759 509.492 417.865 495.829 427.972C492.149 430.693 486.912 429.703 483.045 427.574C477.986 424.789 473.082 416.188 470.755 411.048C468.911 406.973 468.188 401.807 466.729 397.512C465.152 392.871 463.483 388.261 461.942 383.608C456.392 366.833 458.495 349.63 468.858 335.142C472.377 339.857 476.916 343.123 481.436 347.12C483.497 348.942 485.52 350.935 487.284 353.029C490.409 356.736 491.014 361.67 491.874 366.213C493.147 372.931 495.199 379.595 496.774 386.253Z" fill="url(#paint7_linear_170_10)"/>
<path d="M493.454 429.546C493.116 428.539 492.789 427.526 492.469 426.511C494.271 425.666 495.671 423.767 496.82 422.278C498.812 419.694 500.032 416.752 501.124 413.704C501.181 413.543 500.912 413.449 500.841 413.603C499.589 416.288 498.235 418.955 496.318 421.238C495.249 422.509 493.737 424.478 492.148 425.464C491.775 424.248 491.419 423.026 491.079 421.8C492.849 420.697 493.997 418.662 495.148 416.978C497.104 414.116 498.463 410.957 499.942 407.837C499.958 407.802 499.907 407.775 499.887 407.81C497.447 412.203 495.114 417.925 490.84 420.93C490.423 419.389 490.024 417.845 489.664 416.294C489.646 416.212 489.628 416.132 489.61 416.051C494.37 412.173 496.05 406.242 498.59 400.897C498.631 400.811 498.505 400.729 498.462 400.817C495.863 405.871 493.72 411.258 489.404 415.133C488.899 412.911 488.415 410.684 487.934 408.46C491.979 404.385 494.546 399.71 496.105 394.136C496.13 394.042 495.993 393.993 495.961 394.086C494.141 399.407 491.233 403.328 487.729 407.506C487.253 405.303 486.773 403.103 486.267 400.908C487.895 398.885 489.823 397.219 491.138 394.945C492.435 392.703 493.415 390.292 493.72 387.711C493.737 387.575 493.533 387.549 493.51 387.684C492.606 392.883 489.058 396.023 486.038 399.942C485.559 397.899 485.051 395.863 484.501 393.835C487.8 389.327 491.566 384.82 491.9 378.969C491.903 378.912 491.817 378.897 491.809 378.956C491.149 384.497 487.357 388.515 484.221 392.824C484.12 392.464 484.026 392.103 483.923 391.743C483.385 389.874 482.827 388.013 482.265 386.154C484.339 383.945 486.097 381.375 487.696 378.812C488.829 376.995 490.08 375.132 490.37 372.973C490.388 372.837 490.184 372.801 490.161 372.937C489.369 377.453 485.075 381.849 482.021 385.346C481.452 383.468 480.878 381.591 480.31 379.713C483.378 375.141 487.735 371.373 488.194 365.492C488.208 365.317 487.946 365.285 487.924 365.461C487.183 370.98 483.001 374.523 480.044 378.836C479.693 377.672 479.344 376.506 479.002 375.339C482.824 371.497 486.388 365.14 486.881 359.839C486.908 359.548 486.475 359.489 486.429 359.779C485.651 364.591 482.519 370.885 478.735 374.409C478.184 372.516 477.648 370.619 477.143 368.713C477.152 368.649 477.15 368.587 477.138 368.525C478.925 366.951 480.292 364.538 481.565 362.605C483.101 360.272 484.439 357.77 484.761 354.961C484.797 354.651 484.3 354.61 484.277 354.923C483.931 359.533 480.21 364.245 476.836 367.515C476.656 366.818 476.473 366.121 476.301 365.421C476.044 364.374 475.793 363.324 475.543 362.275C476.66 360.37 478.499 358.852 479.593 356.881C480.546 355.166 481.216 353.323 481.854 351.476C481.917 351.291 481.645 351.181 481.571 351.364C480.632 353.71 479.616 356.014 478.091 358.048C477.238 359.185 476.104 360.136 475.313 361.314C474.907 359.598 474.497 357.882 474.074 356.17C474.092 356.158 474.108 356.143 474.126 356.131C474.148 356.125 474.169 356.12 474.192 356.116C474.315 356.084 474.388 356.002 474.423 355.906C476.4 354.298 477.215 351.57 477.956 349.226C477.974 349.17 477.893 349.14 477.871 349.194C476.972 351.391 475.929 353.843 474.105 355.455C474.096 355.457 474.089 355.454 474.078 355.457C474.019 355.473 473.963 355.49 473.906 355.506C473.557 354.116 473.194 352.728 472.811 351.347C472.959 351.243 473.036 351.039 472.923 350.895C473.739 349.545 474.346 348.027 474.895 346.561C474.935 346.45 474.775 346.384 474.727 346.491C474.096 347.89 473.405 349.12 472.527 350.328C471.712 347.486 470.797 344.672 469.694 341.915C469.591 341.659 469.213 341.832 469.305 342.087C470.276 344.784 471.092 347.522 471.836 350.28C469.845 349.234 467.692 348.206 466.073 346.7C465.99 346.621 465.855 346.732 465.935 346.819C466.841 347.8 467.947 348.511 469.056 349.243C470.046 349.897 470.995 350.755 472.095 351.234C472.483 352.719 472.85 354.211 473.203 355.705C471.588 356.163 470.078 356.519 468.33 356.01C466.192 355.385 464.484 353.976 463.4 352.04C463.267 351.802 462.878 351.984 463.016 352.22C464.056 354.007 465.618 355.419 467.542 356.216C469.568 357.055 471.363 356.787 473.346 356.32C473.75 358.048 474.143 359.779 474.529 361.513C472.782 361.33 471.017 360.851 469.331 360.443C466.609 359.784 464.552 358.427 461.998 357.448C461.743 357.349 461.581 357.738 461.835 357.841C464.249 358.805 466.206 360.157 468.761 360.843C470.601 361.338 472.707 362.05 474.666 362.138C474.686 362.228 474.707 362.32 474.727 362.411C474.718 362.435 474.704 362.456 474.695 362.481C474.63 362.655 474.706 362.785 474.823 362.848C475.192 364.508 475.563 366.17 475.948 367.827C475.973 367.929 476 368.032 476.024 368.137C471.765 368.164 465.217 367.815 462.857 363.958C462.632 363.59 462.104 363.968 462.378 364.322C465.562 368.448 471.581 368.132 476.24 369.021C476.691 370.888 477.171 372.746 477.681 374.597C475.05 374.872 472.444 374.911 469.836 374.284C467.464 373.712 464.24 373.192 462.467 371.422C462.411 371.366 462.332 371.457 462.385 371.513C464.095 373.297 466.971 373.732 469.243 374.434C472.128 375.326 474.929 375.918 477.88 375.437C477.896 375.522 477.927 375.602 477.98 375.67C478.308 376.842 478.642 378.011 478.983 379.178C474.566 380.835 467.092 380.375 463.412 378.163C463.395 378.153 463.382 378.178 463.398 378.19C466.029 379.959 468.947 380.352 472.061 380.421C474.388 380.472 476.946 380.623 479.161 379.786C479.795 381.946 480.439 384.103 481.077 386.262C478.906 386.435 476.792 387.017 474.619 387.135C471.39 387.313 468.401 386.323 465.678 384.664C465.513 384.565 465.329 384.799 465.495 384.906C470.633 388.225 475.52 387.625 481.314 387.067C481.836 388.839 482.348 390.614 482.844 392.393C478.408 393.509 471.986 393.476 468.28 390.898C468.008 390.709 467.695 391.117 467.969 391.309C470.326 392.969 473.235 393.358 476.06 393.448C478.095 393.513 481.005 393.837 483.036 393.07C483.053 393.129 483.069 393.187 483.086 393.246C483.79 395.811 484.422 398.397 485.012 400.991C479.931 401.966 475.422 399.964 470.648 398.35C470.315 398.238 470.112 398.74 470.445 398.858C475.356 400.604 479.934 402.705 485.184 401.751C485.658 403.867 486.102 405.986 486.527 408.112C482.15 408.832 477.034 407.868 473.058 405.877C472.776 405.735 472.606 406.184 472.878 406.328C477.078 408.541 482.035 409.38 486.692 408.936C487.142 411.219 487.575 413.505 487.999 415.792C483.737 417.039 479.512 415.975 475.595 413.967C475.504 413.92 475.419 414.076 475.51 414.128C479.098 416.144 484.02 418.108 488.155 416.631C488.291 417.362 488.426 418.092 488.56 418.822C488.642 419.263 488.722 419.711 488.801 420.163C485.388 420.677 482.102 420.896 478.683 420.027C478.588 420.003 478.559 420.146 478.652 420.175C481.991 421.199 485.475 421.315 488.917 420.84C489.154 422.222 489.389 423.648 489.638 425.095C488.733 425.095 487.835 425.051 486.908 425.185C485.207 425.433 483.799 424.936 482.136 424.761C481.984 424.744 481.928 424.975 482.085 424.998C483.571 425.211 484.82 425.796 486.35 425.68C487.482 425.594 488.607 425.634 489.731 425.613C490.736 431.349 492.05 437.332 494.984 441.92C495.634 442.938 497.589 442.378 497.334 441.092C496.548 437.131 494.738 433.36 493.454 429.546Z" fill="#747DED"/>
<path d="M525.634 376.561C526.337 392.45 533.776 417.936 514.827 427.06C509.725 429.517 503.585 427.101 499.378 423.618C493.873 419.059 489.901 407.469 488.262 400.681C486.964 395.3 487.281 388.854 486.503 383.293C485.662 377.285 484.699 371.295 483.904 365.281C481.04 343.604 487.581 323.175 503.532 307.963C506.719 314.511 511.48 319.532 516.052 325.437C518.135 328.128 520.133 331.019 521.793 333.973C524.733 339.204 524.326 345.344 524.319 351.066C524.308 359.525 525.259 368.1 525.634 376.561Z" fill="url(#paint8_linear_170_10)"/>
<path d="M511.574 428.422C511.396 427.119 511.233 425.813 511.08 424.505C513.466 423.896 515.608 421.911 517.35 420.367C520.37 417.688 522.535 414.392 524.567 410.941C524.676 410.756 524.369 410.581 524.247 410.752C522.103 413.727 519.84 416.655 516.979 418.985C515.386 420.284 513.092 422.326 510.932 423.156C510.759 421.592 510.611 420.024 510.48 418.456C512.888 417.523 514.754 415.316 516.542 413.535C519.583 410.508 521.967 406.984 524.486 403.534C524.514 403.495 524.457 403.451 524.427 403.487C520.443 408.263 516.282 414.679 510.39 417.343C510.239 415.375 510.111 413.405 510.034 411.435C510.029 411.332 510.028 411.229 510.023 411.127C516.708 407.515 520.124 400.693 524.449 394.783C524.519 394.688 524.386 394.56 524.31 394.656C519.982 400.199 516.128 406.251 509.984 409.962C509.884 407.143 509.811 404.325 509.742 401.508C515.602 397.493 519.806 392.402 522.99 385.987C523.043 385.88 522.889 385.786 522.827 385.892C519.381 391.939 514.94 396.034 509.712 400.302C509.642 397.514 509.569 394.727 509.462 391.942C511.91 389.861 514.639 388.281 516.764 385.821C518.861 383.394 520.609 380.691 521.578 377.624C521.63 377.462 521.388 377.383 521.329 377.54C519.026 383.651 513.984 386.646 509.408 390.712C509.299 388.119 509.152 385.525 508.953 382.932C514.007 378.215 519.628 373.607 521.389 366.572C521.407 366.502 521.306 366.464 521.283 366.534C519.197 373.117 513.656 377.125 508.847 381.636C508.807 381.175 508.777 380.714 508.735 380.253C508.513 377.858 508.266 375.465 508.012 373.073C511.045 370.869 513.777 368.15 516.314 365.406C518.113 363.459 520.063 361.486 520.918 358.926C520.97 358.766 520.732 358.674 520.671 358.833C518.662 364.139 512.425 368.49 507.902 372.034C507.643 369.62 507.382 367.205 507.125 364.789C511.913 359.941 518.083 356.37 520.003 349.327C520.06 349.117 519.75 349.017 519.681 349.225C517.501 355.763 511.598 359.102 507.004 363.661C506.847 362.165 506.692 360.668 506.546 359.17C512.081 355.384 517.886 348.481 519.711 342.152C519.811 341.804 519.3 341.632 519.176 341.974C517.117 347.643 511.851 354.571 506.435 357.978C506.206 355.549 505.992 353.119 505.818 350.684C505.844 350.609 505.858 350.534 505.858 350.454C508.393 348.956 510.614 346.338 512.611 344.281C515.018 341.801 517.224 339.068 518.267 335.728C518.382 335.359 517.788 335.196 517.688 335.569C516.199 341.092 510.585 345.961 505.726 349.155C505.669 348.265 505.607 347.376 505.562 346.485C505.492 345.152 505.43 343.818 505.369 342.485C507.17 340.429 509.755 339.007 511.542 336.864C513.097 334.999 514.338 332.915 515.543 330.816C515.662 330.607 515.357 330.409 515.225 330.614C513.541 333.249 511.772 335.814 509.447 337.934C508.147 339.119 506.547 340.011 505.315 341.262C505.217 339.08 505.117 336.9 504.999 334.721C505.025 334.711 505.047 334.696 505.072 334.685C505.099 334.683 505.126 334.682 505.153 334.68C505.312 334.671 505.418 334.588 505.484 334.479C508.26 332.983 509.884 329.856 511.326 327.177C511.361 327.114 511.27 327.058 511.229 327.118C509.627 329.579 507.792 332.319 505.202 333.858C505.19 333.858 505.182 333.853 505.168 333.853C505.094 333.861 505.022 333.867 504.946 333.873C504.845 332.101 504.724 330.331 504.579 328.563C504.783 328.471 504.923 328.24 504.819 328.039C506.124 326.586 507.214 324.881 508.219 323.225C508.295 323.101 508.115 322.982 508.03 323.101C506.94 324.655 505.815 325.992 504.467 327.257C504.134 323.614 503.675 319.982 502.97 316.373C502.905 316.039 502.405 316.162 502.458 316.493C503.012 319.997 503.372 323.515 503.637 327.039C501.458 325.307 499.08 323.558 497.459 321.353C497.375 321.24 497.187 321.341 497.264 321.468C498.138 322.87 499.319 323.992 500.497 325.138C501.551 326.163 502.506 327.423 503.729 328.261C503.859 330.157 503.959 332.054 504.042 333.953C501.972 334.136 500.054 334.221 498.049 333.196C495.594 331.941 493.845 329.833 492.975 327.227C492.868 326.906 492.354 327.038 492.466 327.357C493.317 329.771 494.888 331.847 497.044 333.262C499.311 334.752 501.555 334.842 504.075 334.733C504.166 336.929 504.243 339.124 504.311 341.321C502.231 340.695 500.196 339.703 498.24 338.817C495.084 337.387 492.895 335.26 490.019 333.479C489.732 333.3 489.445 333.736 489.731 333.918C492.442 335.651 494.508 337.745 497.456 339.172C499.577 340.199 501.974 341.553 504.335 342.113C504.338 342.229 504.343 342.344 504.346 342.461C504.329 342.488 504.308 342.51 504.291 342.538C504.171 342.734 504.234 342.91 504.363 343.015C504.428 345.12 504.493 347.224 504.577 349.327C504.583 349.459 504.592 349.59 504.597 349.722C499.413 348.77 491.533 346.828 489.557 341.593C489.368 341.094 488.639 341.431 488.89 341.925C491.807 347.679 499.195 348.688 504.654 350.848C504.769 353.222 504.923 355.593 505.115 357.96C501.853 357.687 498.676 357.13 495.65 355.762C492.897 354.519 489.1 353.139 487.354 350.576C487.3 350.496 487.182 350.587 487.235 350.667C488.899 353.233 492.296 354.427 494.895 355.806C498.196 357.558 501.464 358.926 505.164 359.026C505.162 359.132 505.182 359.236 505.232 359.331C505.359 360.831 505.495 362.329 505.639 363.828C499.886 364.82 490.907 362.531 486.943 358.99C486.925 358.973 486.902 359.002 486.919 359.018C489.708 361.778 493.164 362.931 496.933 363.736C499.75 364.337 502.825 365.113 505.711 364.608C505.98 367.381 506.264 370.152 506.541 372.925C503.862 372.631 501.157 372.849 498.489 372.491C494.522 371.959 491.119 370.064 488.192 367.417C488.015 367.257 487.735 367.5 487.912 367.668C493.389 372.893 499.47 373.294 506.642 373.956C506.868 376.231 507.078 378.508 507.268 380.785C501.619 381.114 493.817 379.586 489.909 375.595C489.622 375.301 489.147 375.726 489.434 376.022C491.915 378.587 495.362 379.733 498.775 380.498C501.233 381.048 504.697 382.114 507.342 381.653C507.349 381.727 507.356 381.802 507.362 381.876C507.625 385.159 507.795 388.447 507.911 391.737C501.508 391.746 496.49 388.269 491.061 385.2C490.683 384.986 490.32 385.549 490.697 385.769C496.262 389.029 501.34 392.644 507.944 392.7C508.03 395.38 508.08 398.061 508.104 400.743C502.616 400.604 496.62 398.25 492.248 394.907C491.938 394.67 491.627 395.176 491.924 395.414C496.517 399.077 502.35 401.245 508.115 401.782C508.135 404.662 508.13 407.54 508.117 410.419C502.647 410.948 497.756 408.676 493.459 405.329C493.359 405.25 493.222 405.421 493.32 405.502C497.214 408.785 502.745 412.313 508.112 411.473C508.107 412.392 508.103 413.311 508.098 414.229C508.095 414.784 508.088 415.346 508.08 415.915C503.812 415.748 499.767 415.255 495.811 413.406C495.701 413.355 495.632 413.524 495.737 413.58C499.561 415.597 503.768 416.545 508.064 416.764C508.032 418.5 507.987 420.287 507.955 422.104C506.854 421.894 505.772 421.633 504.614 421.583C502.488 421.489 500.893 420.561 498.912 419.962C498.731 419.908 498.608 420.175 498.794 420.239C500.553 420.842 501.935 421.843 503.82 422.056C505.217 422.215 506.574 422.523 507.944 422.757C507.838 429.963 508.05 437.539 510.555 443.798C511.112 445.186 513.617 444.958 513.603 443.335C513.577 438.358 512.252 433.356 511.574 428.422Z" fill="#747DED"/>
<path d="M536.093 434.375L535.392 447.29L534.294 467.403L532.495 500.448H487.756L485.957 467.403L484.86 447.29L484.159 434.375H536.093Z" fill="#95A8B5"/>
<path d="M535.392 447.29L535.248 449.88L535.103 452.561L534.294 467.403H485.957L485.148 452.561L485.004 449.88L484.861 447.29H535.392Z" fill="#A5B7C6"/>
<path d="M535.248 449.88L535.103 452.561H485.148L485.004 449.88H535.248Z" fill="#95A8B5"/>
<defs>
<radialGradient id="paint0_radial_170_10" cx="0" cy="0" r="1" gradientUnits="userSpaceOnUse" gradientTransform="translate(374.602 170.884) scale(19.5416 19.5417)">
<stop stop-color="#FFC8AF"/>
<stop offset="1" stop-color="#FFBB9C"/>
</radialGradient>
<radialGradient id="paint1_radial_170_10" cx="0" cy="0" r="1" gradientUnits="userSpaceOnUse" gradientTransform="translate(363.297 135.512) rotate(-12.1516) scale(30.8083 30.8083)">
<stop stop-color="#FFC8AF"/>
<stop offset="1" stop-color="#FFBB9C"/>
</radialGradient>
<radialGradient id="paint2_radial_170_10" cx="0" cy="0" r="1" gradientUnits="userSpaceOnUse" gradientTransform="translate(332.94 465.954) scale(12.2853 12.2853)">
<stop stop-color="#FFC8AF"/>
<stop offset="1" stop-color="#FFBB9C"/>
</radialGradient>
<radialGradient id="paint3_radial_170_10" cx="0" cy="0" r="1" gradientUnits="userSpaceOnUse" gradientTransform="translate(255.133 469.035) scale(11.1901 11.1901)">
<stop stop-color="#FFC8AF"/>
<stop offset="1" stop-color="#FFBB9C"/>
</radialGradient>
<radialGradient id="paint4_radial_170_10" cx="0" cy="0" r="1" gradientUnits="userSpaceOnUse" gradientTransform="translate(323.261 259.054) scale(62.6582 62.6581)">
<stop stop-color="#FFC8AF"/>
<stop offset="1" stop-color="#FFBB9C"/>
</radialGradient>
<radialGradient id="paint5_radial_170_10" cx="0" cy="0" r="1" gradientUnits="userSpaceOnUse" gradientTransform="translate(323.261 259.054) scale(62.6579 62.6578)">
<stop stop-color="#FFC8AF"/>
<stop offset="1" stop-color="#FFBB9C"/>
</radialGradient>
<linearGradient id="paint6_linear_170_10" x1="535.389" y1="331.738" x2="535.393" y2="427.44" gradientUnits="userSpaceOnUse">
<stop stop-color="#606BF1"/>
<stop offset="1" stop-color="#58479F"/>
</linearGradient>
<linearGradient id="paint7_linear_170_10" x1="459.48" y1="339.509" x2="499.876" y2="426.267" gradientUnits="userSpaceOnUse">
<stop stop-color="#606BF1"/>
<stop offset="1" stop-color="#58479F"/>
</linearGradient>
<linearGradient id="paint8_linear_170_10" x1="491.119" y1="311.097" x2="520.138" y2="425.923" gradientUnits="userSpaceOnUse">
<stop stop-color="#606BF1"/>
<stop offset="1" stop-color="#58479F"/>
</linearGradient>
</defs>
</svg>
