<svg width="78" height="61" viewBox="0 0 78 61" fill="none" xmlns="http://www.w3.org/2000/svg">
<path d="M69.2868 38.8942L68.5225 51.7432C68.1755 57.0216 63.7304 60.2858 57.6187 60.2858C55.6734 60.2858 53.5205 59.9389 53.5205 57.2997C53.5205 54.8688 55.3264 55.0771 56.4377 55.2157C56.993 55.2854 57.8959 55.3543 58.3823 55.3543C60.7443 55.3543 63.1046 53.7567 63.2441 50.9092L63.8001 39.3108C64.0084 35.0043 65.606 31.7401 68.7308 30.1425C65.6052 28.5449 64.0084 25.2807 63.8001 20.975L63.2441 9.37582C63.1054 6.5283 60.7443 4.93067 58.3134 4.93067C57.8278 4.93067 56.9938 5.00038 56.4385 5.07009C55.3272 5.2087 53.5213 5.41701 53.5213 2.98613C53.5213 0.346925 55.6742 0 57.6195 0C63.7312 0 68.1763 3.26415 68.5232 8.54255C68.8005 12.3627 69.0088 17.1548 69.2876 21.3916C69.5656 25.6974 71.2322 27.6419 74.7735 27.6419C76.3712 27.6419 77.4824 28.4752 77.4824 30.1417C77.4824 31.809 76.3712 32.6423 74.7735 32.6423C71.2314 32.6431 69.5648 34.5876 69.2868 38.8942Z" fill="white"/>
<path d="M2.70891 32.6431C1.11129 32.6431 0 31.8098 0 30.1425C0 28.476 1.11129 27.6427 2.70891 27.6427C6.25028 27.6427 7.91761 25.6982 8.19483 21.3925C8.47365 17.1556 8.68196 12.3636 8.95918 8.54338C9.30611 3.26497 13.7512 0.000823975 19.8629 0.000823975C21.8083 0.000823975 23.9611 0.347751 23.9611 2.98695C23.9611 5.41784 22.1552 5.20952 21.0439 5.07091C20.4887 5.00121 19.6546 4.9315 19.1691 4.9315C16.7382 4.9315 14.377 6.52912 14.2384 9.37664L13.6823 20.9758C13.474 25.2824 11.8764 28.5457 8.75167 30.1433C11.8772 31.7409 13.474 35.0051 13.6823 39.3116L14.2384 50.91C14.377 53.7575 16.7382 55.3551 19.1002 55.3551C19.5857 55.3551 20.4895 55.2854 21.0447 55.2165C22.156 55.0779 23.9619 54.8696 23.9619 57.3005C23.9619 59.9397 21.8091 60.2866 19.8637 60.2866C13.752 60.2866 9.30691 57.0225 8.95998 51.7441L8.19563 38.895C7.91761 34.5877 6.25028 32.6431 2.70891 32.6431Z" fill="white"/>
<path d="M55.2654 14.2825H22.2152C21.5518 14.2825 21.0134 13.7448 21.0134 13.0806C21.0134 12.4164 21.5518 11.8788 22.2152 11.8788H55.2654C55.9288 11.8788 56.4672 12.4164 56.4672 13.0806C56.4672 13.7448 55.9296 14.2825 55.2654 14.2825Z" fill="#5F4BB6"/>
<path d="M55.2654 31.7089H22.2152C21.5518 31.7089 21.0134 31.1713 21.0134 30.5071C21.0134 29.8429 21.5518 29.3052 22.2152 29.3052H55.2654C55.9288 29.3052 56.4672 29.8429 56.4672 30.5071C56.4672 31.1713 55.9296 31.7089 55.2654 31.7089Z" fill="#5F4BB6"/>
<path d="M55.2654 49.1353H22.2152C21.5518 49.1353 21.0134 48.5977 21.0134 47.9335C21.0134 47.2693 21.5518 46.7317 22.2152 46.7317H55.2654C55.9288 46.7317 56.4672 47.2693 56.4672 47.9335C56.4672 48.5977 55.9296 49.1353 55.2654 49.1353Z" fill="#5F4BB6"/>
<path d="M46.1187 41.5238H31.3627C30.6993 41.5238 30.1609 40.9861 30.1609 40.3219C30.1609 39.6577 30.6993 39.1201 31.3627 39.1201H46.1187C46.7821 39.1201 47.3205 39.6577 47.3205 40.3219C47.3205 40.9861 46.7821 41.5238 46.1187 41.5238Z" fill="#5F4BB6"/>
<path d="M46.1187 58.1489H31.3627C30.6993 58.1489 30.1609 57.6113 30.1609 56.9471C30.1609 56.2829 30.6993 55.7453 31.3627 55.7453H46.1187C46.7821 55.7453 47.3205 56.2829 47.3205 56.9471C47.3205 57.6113 46.7821 58.1489 46.1187 58.1489Z" fill="#5F4BB6"/>
<path d="M46.1187 4.46758H31.3627C30.6993 4.46758 30.1609 3.92996 30.1609 3.26576C30.1609 2.60155 30.6993 2.06393 31.3627 2.06393H46.1187C46.7821 2.06393 47.3205 2.60155 47.3205 3.26576C47.3205 3.92996 46.7821 4.46758 46.1187 4.46758Z" fill="#5F4BB6"/>
<path d="M46.1187 23.6294H31.3627C30.6993 23.6294 30.1609 23.0918 30.1609 22.4276C30.1609 21.7634 30.6993 21.2258 31.3627 21.2258H46.1187C46.7821 21.2258 47.3205 21.7634 47.3205 22.4276C47.3205 23.0918 46.7821 23.6294 46.1187 23.6294Z" fill="#5F4BB6"/>
</svg>
